<svg width="40" height="40" viewBox="0 0 40 40" fill="none" xmlns="http://www.w3.org/2000/svg">
<rect width="40" height="40" rx="4" fill="#0F172A" fill-opacity="0.8"/>
<path d="M21.2159 8.72727H26.7614V24.8182C26.7538 26.3258 26.3939 27.6439 25.6818 28.7727C24.9697 29.8939 23.9848 30.7652 22.7273 31.3864C21.4773 32.0076 20.0303 32.3182 18.3864 32.3182C16.9318 32.3182 15.6098 32.0644 14.4205 31.5568C13.2386 31.0492 12.2955 30.2614 11.5909 29.1932C10.8939 28.125 10.5492 26.7576 10.5568 25.0909H16.1591C16.1818 25.6894 16.2955 26.2008 16.5 26.625C16.7121 27.0417 17.0038 27.3561 17.375 27.5682C17.7462 27.7803 18.1894 27.8864 18.7045 27.8864C19.2424 27.8864 19.697 27.7727 20.0682 27.5455C20.4394 27.3106 20.7197 26.9659 20.9091 26.5114C21.1061 26.0568 21.2083 25.4924 21.2159 24.8182V8.72727Z" fill="#5EEAD4" fill-opacity="0.37"/>
</svg>
